<?xml version="1.0" encoding="utf-8"?>
<!-- Generator: Adobe Illustrator 21.1.0, SVG Export Plug-In . SVG Version: 6.00 Build 0)  -->
<svg version="1.1"
	 id="svg8" inkscape:export-filename="C:\xampp\htdocs\public\img\logo.png" inkscape:export-xdpi="96" inkscape:export-ydpi="96" inkscape:version="0.92.2 (5c3e80d, 2017-08-06)" sodipodi:docname="logo-fix-topath.svg" xmlns:cc="http://creativecommons.org/ns#" xmlns:dc="http://purl.org/dc/elements/1.1/" xmlns:inkscape="http://www.inkscape.org/namespaces/inkscape" xmlns:rdf="http://www.w3.org/1999/02/22-rdf-syntax-ns#" xmlns:sodipodi="http://sodipodi.sourceforge.net/DTD/sodipodi-0.dtd" xmlns:svg="http://www.w3.org/2000/svg"
	 xmlns="http://www.w3.org/2000/svg" xmlns:xlink="http://www.w3.org/1999/xlink" x="0px" y="0px" viewBox="0 0 161.2 40.7"
	 style="enable-background:new 0 0 161.2 40.7;" xml:space="preserve">
<style type="text/css">
	.st0{fill:#FFFFFF;}
	.st1{fill:#E55A15;enable-background:new    ;}
</style>
<sodipodi:namedview  bordercolor="#666666" borderopacity="1.0" fit-margin-bottom="0" fit-margin-left="0" fit-margin-right="0" fit-margin-top="0" id="base" inkscape:current-layer="g4825" inkscape:cx="102.86857" inkscape:cy="44.174044" inkscape:document-units="mm" inkscape:guide-bbox="true" inkscape:lockguides="true" inkscape:pageopacity="0.0" inkscape:pageshadow="2" inkscape:window-height="1001" inkscape:window-maximized="1" inkscape:window-width="1920" inkscape:window-x="-9" inkscape:window-y="-9" inkscape:zoom="5.6" pagecolor="#ffffff" showgrid="false" showguides="true">
	<sodipodi:guide  id="guide4839" inkscape:locked="true" orientation="1,0" position="85.989581,231.13245"></sodipodi:guide>
</sodipodi:namedview>
<g id="layer3" transform="translate(-85.989578,-77.170807)" inkscape:groupmode="layer" inkscape:label="Layer 3">
</g>
<path id="path42" class="st0" d="M21.7,29.3c-3.4,0-7.1-3-7.1-9.3c0-6.5,3.5-9.4,7.5-9.4c2.4,0,4.9,1.3,6.2,4.9h1v-4.2
	c-2-1.1-4.8-2.1-7.2-2.1c-6,0-11,4.2-11,11c0,7,4.6,10.9,10.3,10.9c3.7,0,5.9-1,8.1-2.3v-4.1h-1C27.5,27.6,25.1,29.3,21.7,29.3
	L21.7,29.3z"/>
<path id="path44" class="st0" d="M35.1,21.7c0,4.7,2.9,7.2,6.5,7.2c3.6,0,6.5-2.4,6.5-7.2c0-4.5-2.9-7.3-6.5-7.3
	C38.1,14.4,35.1,17.2,35.1,21.7z M38.3,21.6c0-4.4,1.6-5.9,3.4-5.9c1.8,0,3.4,1.4,3.4,5.9c0,4.8-1.6,5.9-3.4,5.9
	C39.9,27.6,38.3,26,38.3,21.6z"/>
<path id="path46" class="st0" d="M54.2,6.5h-0.7l-3.9,1.3v0.8l1.9,0.9V27l-1.7,0.5v1H56v-1L54.2,27V6.5z"/>
<path id="path48" class="st0" d="M61.9,6.5h-0.7l-3.9,1.3v0.8l1.9,0.9V27l-1.7,0.5v1h6.2v-1L61.9,27V6.5z"/>
<path id="path50" class="st0" d="M65.3,21.7c0,4.7,2.9,7.2,6.5,7.2s6.5-2.4,6.5-7.2c0-4.5-2.9-7.3-6.5-7.3S65.3,17.2,65.3,21.7z
	 M68.4,21.6c0-4.4,1.6-5.9,3.4-5.9c1.8,0,3.4,1.4,3.4,5.9c0,4.8-1.6,5.9-3.4,5.9C70,27.6,68.4,26,68.4,21.6z"/>
<path id="path52" class="st0" d="M89.5,25.9C89,26.7,87.9,27,87.2,27c-2.3,0-4.3-1.8-4.3-5.7c0-4.2,2.2-5.6,3.8-5.6
	c1.2,0,2.5,0.7,2.8,2.1V25.9z M89.5,27.8v6.4l-2.3,0.5v1h6.7v-1l-1.7-0.5V14.7l-1-0.3c-0.6,0.6-1.2,0.7-1.7,0.5
	c-0.9-0.3-1.7-0.5-2.9-0.5c-3.3,0-6.5,2.9-6.5,7.6c0,4.8,3.2,6.9,5.6,6.9c1.1,0,2.2-0.3,3.6-1.1H89.5z"/>
<path id="path54" class="st0" d="M94.5,15.1v1.1l1.9,0.3v7.7c0,3.2,1.8,4.6,4,4.6c1.3,0,2.7-0.5,4-1.4l0.2,0.2l0.4,1.2h0.4l3.4-0.7
	v-0.8l-1.7-0.7V14.6l-4.6,0.5v1.1l1.9,0.3v9.2c-0.5,0.6-1.7,1.1-2.8,1.1c-1.7,0-2.6-0.7-2.6-3v-9.3L94.5,15.1z"/>
<path id="path4547" class="st0" d="M114.8,14.4H114l-3.9,1.3v0.8l1.9,0.8V27l-1.7,0.5v1h6.2v-1l-1.7-0.5L114.8,14.4z"/>
<path id="path58" class="st0" d="M117.7,15.1v1.1l1.9,0.3v7.7c0,3.2,1.8,4.6,4,4.6c1.3,0,2.7-0.5,4-1.4l0.2,0.2l0.4,1.2h0.4l3.4-0.7
	v-0.8l-1.7-0.7V14.6l-4.6,0.5v1.1l1.9,0.3v9.2c-0.5,0.6-1.6,1.1-2.8,1.1c-1.7,0-2.6-0.7-2.6-3v-9.3L117.7,15.1z"/>
<path id="path60" class="st0" d="M147.8,28.5v-1L146,27v-8.3c0-0.4,0-0.8-0.1-1.2c0.8-0.5,1.9-1.1,2.8-1.1c1.6,0,2.6,0.9,2.6,3.5V27
	l-1.7,0.5v1h6.2v-1l-1.7-0.5v-8c0-3.2-1.9-4.6-4.1-4.6c-1.6,0-3.1,1-4.5,2.1c-0.7-1.4-2-2.1-3.5-2.1c-1.2,0-2.3,0.6-3.7,1.7
	l-0.2-0.2l-0.2-1.5h-0.7l-3.8,1.3v0.8l1.9,0.8V27l-1.7,0.5v1h6.2v-1L138,27v-9.5c0.6-0.5,1.6-1.1,2.7-1.1c1.7,0,2.6,0.9,2.6,3.5V27
	l-1.7,0.5v1H147.8z"/>
<path id="path63" class="st1" d="M21.1,35.4c-6.2,0-12.9-4.8-12.9-14.9c0-10.4,6.4-15.1,13.6-15.1c4.3,0,8.9,2.1,11.1,7.8h1.8V6.4
	C31,4.6,26,3,21.8,3C11,3,1.9,9.8,1.9,20.6c0,11.3,8.3,17.5,18.6,17.5c6.8,0,10.7-1.6,14.7-3.7v-6.6h-1.7
	C31.5,32.7,27.1,35.4,21.1,35.4L21.1,35.4z"/>
<g>
	<path class="st0" d="M110.1,11.5c0-0.2-0.1-0.4-0.1-0.6c0-0.4,0-0.8,0.1-1.2c0-0.4,0.1-0.9,0.1-1.3c0-0.1,0-0.3-0.1-0.4
		c-0.1-0.1-0.1-0.1-0.2,0c0,0,0,0,0,0c-0.1,0.1-0.1,0.1-0.2,0.2c0-0.1-0.1-0.2-0.1-0.2c-0.1-0.2,0-0.3,0.1-0.5
		c0.1-0.1,0.2-0.1,0.3-0.1c0.2,0.1,0.3,0.3,0.4,0.6c0.1,0.5,0.1,0.9,0.2,1.4c0,0.5,0.1,1,0.1,1.4c0,0.2,0.2,0.3,0.4,0.2
		c0.4-0.3,0.6-0.7,0.8-1.1c0.3-0.6,0.4-1.3,0.5-2c0-0.3,0.1-0.6,0.1-0.9c0-0.1,0-0.2,0-0.4c0,0,0,0,0,0c0,0,0,0,0,0.1
		c-0.3,0.5-0.6,1-0.9,1.4c-0.3,0.4-0.4,0.8-0.4,1.3c0,0.1,0,0.1,0,0.2c0,0,0,0-0.1,0c0-0.1,0-0.1,0-0.2c0-0.6-0.1-1.3-0.1-1.9
		c0-0.1,0-0.2,0.1-0.3c1-0.8,1.6-1.9,1.9-3.1c0-0.2,0-0.4,0-0.6c0-0.1-0.1-0.2-0.2-0.3c-0.2-0.1-0.3-0.3-0.2-0.5
		c0-0.1,0.1-0.1,0.2-0.1c0.1,0,0.2,0.1,0.2,0.1c0.1,0.2,0.1,0.3,0.2,0.5c0,0.3,0,0.6,0,0.8c0,0.5,0,1,0.1,1.5c0,0.1,0.1,0.2,0.1,0.3
		c0.1,0.1,0.2,0.2,0.3,0c0.1-0.1,0.1-0.2,0.1-0.4c0-0.1,0-0.3,0-0.4c0-0.1,0-0.2,0.1-0.2c0.2,0.4,0.2,0.8,0.1,1.2
		c0,0.1-0.1,0.2-0.1,0.3c-0.1,0.1,0,0.2,0,0.4c0.3,0.4,0.6,0.4,0.8,0c0.2-0.3,0.3-0.6,0.2-1c0-0.1,0-0.1,0-0.2c0,0,0.1,0,0.1,0
		c0,0.2,0.1,0.4,0.1,0.6c0,0.5-0.1,1-0.4,1.4c-0.1,0.1-0.1,0.2,0,0.3c0.4,0.5,0.4,1.1,0.5,1.7c0,0.3,0,0.6,0,0.9c0,0,0,0,0-0.1
		c0.1-0.5,0.4-0.9,0.7-1.3c0,0,0.1-0.1,0.1-0.1c0.3-0.4,0.4-0.8,0.2-1.2c-0.1-0.2-0.1-0.2,0.1-0.3c0.1,0.2,0.1,0.5,0.2,0.7
		c0.1,0.4,0,0.7,0,1.1c-0.1,0.4-0.3,0.8-0.6,1.1c-0.3,0.3-0.5,0.5-0.7,0.9c0,0,0,0.1-0.1,0.1c0,0,0,0,0,0.1c0.1,0,0.1,0,0.2,0
		c0.6,0,1.2,0,1.7,0c0,0,0.1,0,0.1,0c0,0,0,0,0.1,0c0,0,0,0,0,0.1c0,0-0.1,0-0.1,0c-2.7,0-5.4,0-8.1,0c0,0-0.1,0-0.1,0
		c0,0,0,0,0-0.1c0,0,0,0,0.1,0c0,0,0.1,0,0.1,0C109.3,11.5,109.7,11.5,110.1,11.5z M112.7,5.4C112.7,5.4,112.7,5.4,112.7,5.4
		C112.7,5.4,112.7,5.4,112.7,5.4c-0.2,0.6-0.2,1.2-0.2,1.8c0,0.3,0.1,0.5,0.2,0.8c0.4,0.7,0.8,1.5,1.2,2.2c0.2,0.4,0.4,0.8,0.4,1.3
		c0,0.1,0.1,0.1,0.1,0.1c0.1,0,0.2,0.1,0.3-0.1c0.1-0.6,0.1-1.1-0.2-1.6c-0.5-0.9-1-1.7-1.4-2.5c-0.2-0.4-0.3-0.8-0.4-1.2
		C112.7,5.8,112.7,5.6,112.7,5.4z M110.9,11.1c0.1,0.3,0.3,0.5,0.6,0.4c0,0,0,0,0.1,0c0.1,0,0.1-0.1,0.2-0.1c0.2-0.6,0.5-1,0.9-1.5
		c0.1-0.1,0.1-0.1,0-0.2c-0.2-0.2-0.3-0.5-0.4-0.8c0,0-0.1-0.1-0.1-0.1C111.9,9.7,111.6,10.5,110.9,11.1z M111.8,11.5
		c0.3,0,0.6,0,0.9,0c0,0,0.1-0.1,0.1-0.1c0-0.3,0.1-0.7,0.1-1c0-0.1,0-0.2-0.1-0.3C112.4,10.5,112.1,10.9,111.8,11.5z M113.7,11.5
		c-0.2-0.4-0.4-0.7-0.6-1c0,0,0,0,0,0c0,0.3-0.1,0.6-0.1,0.9c0,0,0,0.1,0.1,0.1C113.3,11.5,113.5,11.5,113.7,11.5z"/>
</g>
<g id="layer2" transform="translate(-85.989578,-77.170807)" inkscape:groupmode="layer" inkscape:label="Layer 2">
</g>
</svg>
