<svg xmlns="http://www.w3.org/2000/svg" width="214" height="58" viewBox="0 0 214 58">
  <path fill="#ee7b00" class="logomark" d="M40.78163,48.1277a5.66968,5.66968,0,0,0-2.69672.755c-1.29312,1.57548,4.06759,1.86806.47878,3.6195a5.171,5.171,0,0,1-2.89519.27827c-1.40361-.309-2.46552-1.19082-2.07676-2.19748a6.50933,6.50933,0,0,1,4.41543-3.11821c6.65587-1.49568,11.24112-.87163,17.96246-1.76985,2.52485-.29259,2.754.03069,2.74378-1.60208a13.22375,13.22375,0,0,0-2.31411-2.7581c-6.73976-5.72286-17.6044-7.38427-28.26853-7.89784L28.141,33.529c4.6098,2.22612,8.11881,4.85328,12.18231,7.27583a14.56216,14.56216,0,0,0,7.76075,1.13353L48.96591,43.033l-0.14118.08593-15.54605.96165H33.11909A40.61478,40.61478,0,0,0,11.41436,30.16115a11.84768,11.84768,0,0,0-5.78015-.09207c-1.67778.888-.46037,3.53357-4.29675,2.86041a2.21074,2.21074,0,0,1-1.1458-.7284,1.70988,1.70988,0,0,1,1.0169-2.4205c3.79956-1.88648,10.11987-.78365,15.368-0.9637,2.93407-.08389,6.24052-0.534,7.01189-2.355a2.65809,2.65809,0,0,0-2.11359-1.86806,9.752,9.752,0,0,0-4.40315-.00818,4.44,4.44,0,0,1-1.47931-.83275,13.411,13.411,0,0,1,8.5669-1.06191,18.165,18.165,0,0,1,3.96529,1.375,6.88164,6.88164,0,0,0,2.91156-2.53508c0.80411-1.34018-.34374-2.85222-2.263-3.908a8.87443,8.87443,0,0,0-5.63079-1.3811l-1.64913.178-0.85321-.90436a15.25077,15.25077,0,0,1,9.76794-.37443,20.07323,20.07323,0,0,1,6.05023,3.063,25.6187,25.6187,0,0,1,5.5203-2.77857A35.99859,35.99859,0,0,1,56.49546,14.656l-0.01228-.09207a22.64785,22.64785,0,0,1-8.42777-4.05736C45.92136,9.148,44.56686,6.95051,41.16424,6.53515a12.87136,12.87136,0,0,0-4.665.96165,5.38693,5.38693,0,0,1-1.65323-.9371,22.29512,22.29512,0,0,1,13.70459-.89209c6.5904,1.7187,7.12237,5.8845,12.66314,8.40526,0.48492,0.21688.976,0.41331,1.47113,0.61587V0h1.01485V58H62.68483l0.002-9.36078c-6.5106,1.85579-13.68208-.534-21.90525-0.51152m21.89706-29.134,0.00614-2.40618V16.56909a20.90677,20.90677,0,0,0-10.75415.80206l-4.09624,2.02766L32.28838,28.5427c-3.08343,1.7453-7.5275,1.8742-11.9286,2.06039L20.37,30.69722c5.0763,0.931,11.93474,1.7944,16.36653.34988l4.85328-2.38367L54.70515,20.9661a18.4102,18.4102,0,0,1,7.97354-1.97241m0.00614,9.59812V23.78559l-6.9014,4.00621c-0.1023.01841-.06752,0.08389-0.05729,0.133Zm0,7.87329,0.002-6.70293-8.58532-.86753-1.16217.78365a25.86849,25.86849,0,0,0,9.74544,6.78682m0,4.96582V37.84005a28.31354,28.31354,0,0,1-11.3066-7.329l-6.62109,3.93869c6.40625,1.38928,12.8391,5.00265,15.41715,8.66921Z"/>
</svg>
